<mxfile host="65bd71144e" pages="2">
    <diagram id="h4a1O3QULUHMrSK57SKZ" name="Page-1">
        <mxGraphModel dx="544" dy="285" grid="1" gridSize="10" guides="1" tooltips="1" connect="1" arrows="1" fold="1" page="1" pageScale="1" pageWidth="1169" pageHeight="827" math="0" shadow="0">
            <root>
                <mxCell id="0"/>
                <mxCell id="1" parent="0"/>
                <mxCell id="qhw6j55XiY57So3q0XcR-1" value="&lt;span style=&quot;font-family: Arial; font-size: 18px; text-align: start;&quot;&gt;A user can write a blog post,&lt;/span&gt;&lt;br style=&quot;font-family: Arial; font-size: 18px; text-align: start;&quot;&gt;&lt;span style=&quot;font-family: Arial; font-size: 18px; text-align: start;&quot;&gt;each blog post can contain one or more tags&lt;/span&gt;&lt;br style=&quot;font-family: Arial; font-size: 18px; text-align: start;&quot;&gt;&lt;span style=&quot;font-family: Arial; font-size: 18px; text-align: start;&quot;&gt;each post can contain one or many comments left by guests&lt;/span&gt;" style="rounded=0;whiteSpace=wrap;html=1;" parent="1" vertex="1">
                    <mxGeometry x="330" y="40" width="560" height="140" as="geometry"/>
                </mxCell>
            </root>
        </mxGraphModel>
    </diagram>
    <diagram id="aQ6VRVT0T3YcWR7MDj6o" name="Page-2">
        <mxGraphModel dx="544" dy="285" grid="1" gridSize="10" guides="1" tooltips="1" connect="1" arrows="1" fold="1" page="1" pageScale="1" pageWidth="1169" pageHeight="827" math="0" shadow="0">
            <root>
                <mxCell id="0"/>
                <mxCell id="1" parent="0"/>
                <mxCell id="B7X5VVNDrLK-QjltNd-t-10" style="edgeStyle=orthogonalEdgeStyle;rounded=0;orthogonalLoop=1;jettySize=auto;html=1;" parent="1" source="M9_Oa7z0D6FLBItnCrty-1" edge="1">
                    <mxGeometry relative="1" as="geometry">
                        <mxPoint x="420" y="319" as="targetPoint"/>
                    </mxGeometry>
                </mxCell>
                <mxCell id="M9_Oa7z0D6FLBItnCrty-1" value="&lt;span style=&quot;font-size: 18px;&quot;&gt;&lt;b&gt;User&lt;/b&gt;&lt;/span&gt;" style="rounded=0;whiteSpace=wrap;html=1;" parent="1" vertex="1">
                    <mxGeometry x="250" y="289" width="120" height="60" as="geometry"/>
                </mxCell>
                <mxCell id="B7X5VVNDrLK-QjltNd-t-1" value="&lt;span style=&quot;font-family: Arial; font-size: 18px; text-align: start;&quot;&gt;A user can write a blog post,&lt;/span&gt;&lt;br style=&quot;font-family: Arial; font-size: 18px; text-align: start;&quot;&gt;&lt;span style=&quot;font-family: Arial; font-size: 18px; text-align: start;&quot;&gt;each blog post can contain one or more tags&lt;/span&gt;&lt;br style=&quot;font-family: Arial; font-size: 18px; text-align: start;&quot;&gt;&lt;span style=&quot;font-family: Arial; font-size: 18px; text-align: start;&quot;&gt;each post can contain one or many comments left by guests&lt;/span&gt;" style="rounded=0;whiteSpace=wrap;html=1;" parent="1" vertex="1">
                    <mxGeometry x="330" y="40" width="560" height="140" as="geometry"/>
                </mxCell>
                <mxCell id="B7X5VVNDrLK-QjltNd-t-12" style="edgeStyle=orthogonalEdgeStyle;rounded=0;orthogonalLoop=1;jettySize=auto;html=1;entryX=0;entryY=0.5;entryDx=0;entryDy=0;" parent="1" source="B7X5VVNDrLK-QjltNd-t-2" target="B7X5VVNDrLK-QjltNd-t-7" edge="1">
                    <mxGeometry relative="1" as="geometry"/>
                </mxCell>
                <mxCell id="B7X5VVNDrLK-QjltNd-t-14" style="edgeStyle=orthogonalEdgeStyle;rounded=0;orthogonalLoop=1;jettySize=auto;html=1;entryX=0.5;entryY=0;entryDx=0;entryDy=0;" parent="1" source="B7X5VVNDrLK-QjltNd-t-2" target="B7X5VVNDrLK-QjltNd-t-8" edge="1">
                    <mxGeometry relative="1" as="geometry"/>
                </mxCell>
                <mxCell id="B7X5VVNDrLK-QjltNd-t-2" value="&lt;span style=&quot;font-size: 18px;&quot;&gt;&lt;b&gt;Blog&lt;/b&gt;&lt;/span&gt;" style="rounded=0;whiteSpace=wrap;html=1;" parent="1" vertex="1">
                    <mxGeometry x="560" y="289" width="120" height="60" as="geometry"/>
                </mxCell>
                <mxCell id="B7X5VVNDrLK-QjltNd-t-3" value="&lt;span style=&quot;font-size: 18px;&quot;&gt;&lt;b&gt;Tags&lt;/b&gt;&lt;/span&gt;" style="rounded=0;whiteSpace=wrap;html=1;" parent="1" vertex="1">
                    <mxGeometry x="840" y="289" width="120" height="60" as="geometry"/>
                </mxCell>
                <mxCell id="B7X5VVNDrLK-QjltNd-t-4" value="&lt;span style=&quot;font-size: 18px;&quot;&gt;&lt;b&gt;Comments&lt;/b&gt;&lt;/span&gt;" style="rounded=0;whiteSpace=wrap;html=1;" parent="1" vertex="1">
                    <mxGeometry x="560" y="479" width="120" height="60" as="geometry"/>
                </mxCell>
                <mxCell id="B7X5VVNDrLK-QjltNd-t-16" style="edgeStyle=orthogonalEdgeStyle;rounded=0;orthogonalLoop=1;jettySize=auto;html=1;entryX=0;entryY=0.5;entryDx=0;entryDy=0;" parent="1" source="B7X5VVNDrLK-QjltNd-t-5" target="B7X5VVNDrLK-QjltNd-t-9" edge="1">
                    <mxGeometry relative="1" as="geometry"/>
                </mxCell>
                <mxCell id="B7X5VVNDrLK-QjltNd-t-5" value="&lt;span style=&quot;font-size: 18px;&quot;&gt;&lt;b&gt;Guests&lt;/b&gt;&lt;/span&gt;" style="rounded=0;whiteSpace=wrap;html=1;" parent="1" vertex="1">
                    <mxGeometry x="250" y="479" width="120" height="60" as="geometry"/>
                </mxCell>
                <mxCell id="B7X5VVNDrLK-QjltNd-t-11" style="edgeStyle=orthogonalEdgeStyle;rounded=0;orthogonalLoop=1;jettySize=auto;html=1;" parent="1" source="B7X5VVNDrLK-QjltNd-t-6" target="B7X5VVNDrLK-QjltNd-t-2" edge="1">
                    <mxGeometry relative="1" as="geometry"/>
                </mxCell>
                <mxCell id="B7X5VVNDrLK-QjltNd-t-6" value="writes" style="rhombus;whiteSpace=wrap;html=1;fontSize=18;" parent="1" vertex="1">
                    <mxGeometry x="423.75" y="289" width="82.5" height="60" as="geometry"/>
                </mxCell>
                <mxCell id="B7X5VVNDrLK-QjltNd-t-13" style="edgeStyle=orthogonalEdgeStyle;rounded=0;orthogonalLoop=1;jettySize=auto;html=1;entryX=0;entryY=0.5;entryDx=0;entryDy=0;" parent="1" source="B7X5VVNDrLK-QjltNd-t-7" target="B7X5VVNDrLK-QjltNd-t-3" edge="1">
                    <mxGeometry relative="1" as="geometry"/>
                </mxCell>
                <mxCell id="B7X5VVNDrLK-QjltNd-t-7" value="has" style="rhombus;whiteSpace=wrap;html=1;fontSize=18;" parent="1" vertex="1">
                    <mxGeometry x="725" y="289" width="82.5" height="60" as="geometry"/>
                </mxCell>
                <mxCell id="B7X5VVNDrLK-QjltNd-t-15" style="edgeStyle=orthogonalEdgeStyle;rounded=0;orthogonalLoop=1;jettySize=auto;html=1;" parent="1" source="B7X5VVNDrLK-QjltNd-t-8" target="B7X5VVNDrLK-QjltNd-t-4" edge="1">
                    <mxGeometry relative="1" as="geometry"/>
                </mxCell>
                <mxCell id="B7X5VVNDrLK-QjltNd-t-8" value="has" style="rhombus;whiteSpace=wrap;html=1;fontSize=18;" parent="1" vertex="1">
                    <mxGeometry x="578.75" y="389" width="82.5" height="60" as="geometry"/>
                </mxCell>
                <mxCell id="B7X5VVNDrLK-QjltNd-t-17" style="edgeStyle=orthogonalEdgeStyle;rounded=0;orthogonalLoop=1;jettySize=auto;html=1;entryX=0;entryY=0.5;entryDx=0;entryDy=0;" parent="1" source="B7X5VVNDrLK-QjltNd-t-9" target="B7X5VVNDrLK-QjltNd-t-4" edge="1">
                    <mxGeometry relative="1" as="geometry"/>
                </mxCell>
                <mxCell id="B7X5VVNDrLK-QjltNd-t-9" value="has" style="rhombus;whiteSpace=wrap;html=1;fontSize=18;" parent="1" vertex="1">
                    <mxGeometry x="423.75" y="479" width="82.5" height="60" as="geometry"/>
                </mxCell>
            </root>
        </mxGraphModel>
    </diagram>
</mxfile>